<svg xmlns="http://www.w3.org/2000/svg" width="239.563" height="71.938" viewBox="0 0 239.563 71.938">
  <defs>
    <style>
      .cls-1 {
        fill: #4f504e;
        fill-rule: evenodd;
      }
    </style>
  </defs>
  <path id="_اليوم_العالمي_للأم_21_مارس" data-name="# اليوم_العالمي_للأم 21 مارس" class="cls-1" d="M92.958,78.361c-4.463,0-5.435,5.255-5.507,8.783a9.081,9.081,0,0,0-2.052.612,3.494,3.494,0,0,0-1.944,3.312c0,1.836.792,9.358,0.792,9.358H86.91s-0.936-9.106-.936-9.646c0-.576,1.584-1.08,5.219-1.08h5.8c1.26,0,2.34-1.728,2.34-2.988C99.329,83.9,96.845,78.361,92.958,78.361ZM91.7,86.82c-0.432,0-1.224,0-2.16.072,0.072-2.664.864-5.615,3.1-5.615,2.52,0,4.031,3.024,4.679,5.543H91.7ZM107.07,66.159a12.979,12.979,0,0,1-2.412.36,1.363,1.363,0,0,1-1.511-1.044,1.293,1.293,0,0,1,1.4-1.008,1.92,1.92,0,0,1,1.367.612l0.288-1.548a2.035,2.035,0,0,0-1.584-.756,2.871,2.871,0,0,0-2.555,2.808,2.347,2.347,0,0,0,.4,1.224,7.178,7.178,0,0,1-.972.072v1.548a28.5,28.5,0,0,0,5.579-.648v-1.62ZM120.1,86.82c-3.024,0-3.96-.792-3.96-3.564V65.007l-2.52.18V81.421c0,0.5,0,.972.036,1.4a10.065,10.065,0,0,1-2.663,2.088c0-.612-0.036-1.368-0.108-2.124-0.4-3.708-2.916-8.639-7.775-13.426l-1.62,2.052c5.579,5.831,6.587,8.927,7.163,11.807a13.446,13.446,0,0,1,.216,2.7,21.459,21.459,0,0,1-7.163,1.584l0.432,2.736a18.609,18.609,0,0,0,10.8-3.671,4.172,4.172,0,0,0,1.008-1.224c0.864,3.959,3.2,4.355,6.156,4.355l0.575-.108V86.928Zm0,2.88c2.556,0,4-.54,4.823-1.188,1.116-.9,2.088-2.376,2.088-5.4V65.007l-2.52.18V85.452c0,0.9-1.3,1.368-4.391,1.368l-0.576.108v2.664Zm9.072,2.88v2.412h14.83V92.579h-14.83Zm35.817-5.759h-6.875l-0.612,2.88c2.556,0,4.5,1.3,4.5,2.448,0,1.08-3.924,3.636-8.531,3.636-5.4,0-6.119-3.312-6.119-5.039a15.723,15.723,0,0,1,1.475-5.651h-2.411a16.133,16.133,0,0,0-1.332,6.335c0,2.808,1.476,7.235,8.243,7.235,5.147,0,8.495-2.34,9.755-3.96a5.668,5.668,0,0,0,1.151-3.564,2.42,2.42,0,0,0-.5-1.44h1.259l0.576-.108V86.928Zm-8.855,13.426a14.937,14.937,0,0,0-1.619,1.62,14.9,14.9,0,0,0-1.62-1.62,11.455,11.455,0,0,0-1.836,1.908,12.182,12.182,0,0,0,1.836,1.872,16.792,16.792,0,0,0,1.62-1.584,16.844,16.844,0,0,0,1.619,1.584,14.311,14.311,0,0,0,1.836-1.872A13.294,13.294,0,0,0,156.137,100.246ZM170.79,83.9v-18.9l-2.519.288v18.25a6.185,6.185,0,0,0,.971,3.492,23.08,23.08,0,0,0-3.923-.216h-0.468l-0.432.108v2.664l0.432,0.108h0.828c3.131,0,3.815,0,7.487,1.872l1.584-2.7S170.79,85.992,170.79,83.9Zm8.676-18.9-2.519.18V81.421c0,7.343,2.591,8.279,6.011,8.279h0.468L184,89.592V86.928l-0.576-.108c-3.024,0-3.96-.792-3.96-3.564V65.007ZM202.253,86.82h-1.836a18.663,18.663,0,0,1-5.255-.4,15.47,15.47,0,0,0,4.967-5.579,9.181,9.181,0,0,0,.216-2.412c-1.188-.792-4.068-1.44-7.019-1.44a26.622,26.622,0,0,0-8.027,1.332v2.484a65.446,65.446,0,0,1,5.255,5.219,21.859,21.859,0,0,1-6.371.792h-0.792l-0.54.108v2.664l0.54,0.108h0.864a19.7,19.7,0,0,0,8.243-1.8c1.692,1.332,3.491,1.8,7.559,1.8h2.2l0.576-.108V86.928Zm-14.291-6.659a20.573,20.573,0,0,1,4.932-.54,21.9,21.9,0,0,1,5.291.684,14.343,14.343,0,0,1-5.255,4.751c-0.36-.324-0.756-0.72-1.188-1.152C190.518,82.681,189.114,81.241,187.962,80.161ZM202.255,89.7c2.556,0,4-.54,4.823-1.188,1.116-.9,2.088-2.376,2.088-5.4V65.007l-2.52.18V85.452c0,0.9-1.295,1.368-4.391,1.368l-0.576.108v2.664Zm11.232,0h2.519V65.007l-2.519.18V89.7Zm4.68,2.88v2.412H233V92.579h-14.83Zm25.415-14.218c-4.464,0-5.436,5.255-5.508,8.783a9.075,9.075,0,0,0-2.051.612,3.493,3.493,0,0,0-1.944,3.312c0,1.836.792,9.358,0.792,9.358h2.663S236.6,91.32,236.6,90.78c0-.576,1.583-1.08,5.219-1.08h5.795c1.26,0,2.34-1.728,2.34-2.988C249.953,83.9,247.469,78.361,243.582,78.361Zm-1.26,8.459c-0.432,0-1.224,0-2.16.072,0.072-2.664.864-5.615,3.1-5.615,2.519,0,4.031,3.024,4.679,5.543h-5.615Zm23.291,0h-1.908c-0.036-3.744-1.871-8.6-5.507-8.6-3.491,0-5.651,4.176-5.651,7.055,0,3.06,2.016,4.427,4.931,4.427h3.888a5.312,5.312,0,0,1-5.112,4.139,10.884,10.884,0,0,1-3.779-.612l0.072,2.7a8.113,8.113,0,0,0,3.707.792c4.284,0,6.48-3.384,7.2-7.019h2.16l0.576-.108V86.964Zm-11.086-1.728c0-1.62,1.3-4,3.275-4,2.16,0,3.528,2.988,3.744,5.723h-3.96C256.254,86.82,254.527,86.424,254.527,85.092Zm22.247,1.728c-1.8,0-3.708-.36-4.572-1.08l0.612-5.939h-2.376s-0.54,4.823-.648,5.507c-0.108.576-.9,1.512-4.175,1.512l-0.576.108v2.664l0.576,0.108c2.52,0,3.923-.648,4.751-1.4a3.394,3.394,0,0,0,.36-0.36c1.44,1.512,3.96,1.764,6.048,1.764l0.575-.108V86.928Zm-4.536,4.715a10.817,10.817,0,0,0-1.548,1.548,11.73,11.73,0,0,0-1.511-1.548,10.152,10.152,0,0,0-1.728,1.8,10.772,10.772,0,0,0,1.728,1.764,12.921,12.921,0,0,0,1.511-1.512,11.8,11.8,0,0,0,1.548,1.512A11.935,11.935,0,0,0,274,93.335,11.167,11.167,0,0,0,272.238,91.536Zm4.537-1.836c2.556,0,4-.54,4.823-1.188,1.116-.9,2.088-2.376,2.088-5.4V65.007l-2.52.18V85.452c0,0.9-1.3,1.368-4.391,1.368l-0.576.108v2.664Zm11.232,0h2.519V65.007l-2.519.18V89.7Zm17.064-15.406-0.324,1.944h4.1l-1.26,5.939h-3.959l-0.324,1.944h3.887L306.006,89.7h2.016l1.188-5.579h5.435L313.458,89.7h2.015l1.188-5.579H321.2l0.324-1.944h-4.464l1.26-5.939h4.319l0.324-1.944h-4.211l1.188-5.579h-2.016l-1.188,5.579H311.3l1.188-5.579H310.47l-1.188,5.579h-4.211Zm4.535,7.883,1.26-5.939H316.3l-1.26,5.939h-5.435ZM114.843,116.433l-2.412.288,0.684,8.639a16.241,16.241,0,0,1-5.651-2.16c0.252-1.511.4-3.059,0.576-4.5h-2.3s-0.54,4.427-.792,5.111c-0.216.576-.828,1.008-2.592,1.008a6.332,6.332,0,0,1-2.159-.288c-0.252-1.908-.576-3.959-0.864-5.543l-2.448.4c0.144,0.792,1.26,7.523,1.26,9.431,0,0.9-2.628,3.023-6.7,3.023-5.471,0-5.759-3.383-5.759-5.111a15.416,15.416,0,0,1,1.476-5.615H84.751a15.841,15.841,0,0,0-1.332,6.3c0,2.807,1.044,7.307,7.883,7.307,3.347,0,6.3-1.332,7.7-2.952a5.292,5.292,0,0,0,1.44-3.707v-0.576a7.427,7.427,0,0,0,1.871.216c2.628,0,3.6-1.044,4.068-1.872a12.852,12.852,0,0,0,6.659,2.412c1.08,0,2.448-1.98,2.448-3.132C115.491,123.776,114.843,116.433,114.843,116.433Zm2.776,18.286c5.327,0,7.091-5.327,7.487-7.739a12.208,12.208,0,0,0,.108-3.924,38.494,38.494,0,0,0-1.872-6.119l-2.376.5c1.368,4.14,2.124,6.371,2.124,7.2,0,3.06-1.368,7.2-5.471,7.2a6.7,6.7,0,0,1-2.3-.4l0.144,2.7A3.894,3.894,0,0,0,117.619,134.719Zm13.5-31.712-2.519.18v16.234c0,7.343,2.591,8.279,6.011,8.279h0.468l0.576-.108v-2.664l-0.576-.108c-3.024,0-3.96-.792-3.96-3.563v-18.25Zm13.86,13.21c-2.556,0-4.14,2.088-5.616,4.788-1.763,3.239-2.231,3.815-4.283,3.815l-0.576.108v2.664l0.576,0.108c1.8,0,2.808-.36,3.744-1.548a10.168,10.168,0,0,0,6.083,1.728c4.139,0,5.291-2.484,5.291-4.608C150.2,120.5,148.289,116.217,144.978,116.217ZM144.618,125a8.594,8.594,0,0,1-4.392-1.08c0.216-.4.4-0.792,0.648-1.224,1.08-2.087,2.34-3.6,3.816-3.6,1.98,0,3.347,3.131,3.347,4.607C148.037,124.424,146.778,125,144.618,125Zm17.893,0.756V127.7h13.894v-2.52h-9.827v-0.036c4.824-3.851,9.071-8.855,9.071-12.814,0-4-3.059-5.94-6.587-5.94a9.83,9.83,0,0,0-5.9,1.836v2.592a8.141,8.141,0,0,1,5.579-1.98,3.846,3.846,0,0,1,4.067,3.672C172.805,116.433,167.622,121.437,162.511,125.756Zm21.2,1.944h2.808V106.714h-1.44l-6.263,1.872v2.268l4.9-.864V127.7Z" transform="translate(-83.406 -62.781)"/>
</svg>
